# Blender v3.0.0 OBJ File: ''
# www.blender.org
o Plane_Plane.006
v 0.000000 0.000000 -1.000000
v -1.000000 0.000000 0.000000
v 0.000000 0.000000 1.000000
v 1.000000 0.000000 0.000000
v 0.000000 0.000000 0.000000
v 0.000000 1.000000 -0.000000
v -1.000000 0.000000 0.000000
v 0.000000 -1.000000 0.000000
v 1.000000 0.000000 0.000000
v 0.000000 0.000000 0.000000
v -0.000000 1.000000 -0.000000
v -0.000000 0.000000 1.000000
v 0.000000 -1.000000 0.000000
v 0.000000 0.000000 -1.000000
v 0.000000 0.000000 0.000000
vn 0.0000 1.0000 0.0000
vn 0.0000 0.0000 1.0000
vn 1.0000 0.0000 0.0000
s off
f 2//1 3//1 5//1
f 4//1 5//1 3//1
f 5//1 4//1 1//1
f 5//1 1//1 2//1
f 7//2 8//2 10//2
f 9//2 10//2 8//2
f 10//2 9//2 6//2
f 10//2 6//2 7//2
f 12//3 13//3 15//3
f 14//3 15//3 13//3
f 15//3 14//3 11//3
f 15//3 11//3 12//3
