# Blender v3.0.0 OBJ File: '6x5surface.blend'
# www.blender.org
mtllib Simplest6x5BezierSurface.mtl
o Plane
v -2.000855 0.000000 1.995386
v 1.989917 0.000000 2.000855
v -2.006324 0.000000 -1.989916
v 1.989917 0.000000 -1.989916
v -2.004970 0.000000 -1.003585
v 1.989917 0.000000 -0.998121
v -2.003574 0.000000 0.013683
v 1.989917 0.000000 -0.008204
v -2.002223 0.000000 0.998128
v 1.989917 0.000000 1.003589
v -1.006324 0.000000 -1.989916
v -1.003609 0.000000 -1.002215
v -1.000832 0.000000 0.008187
v -0.998107 0.000000 0.999502
v -0.995367 0.000000 1.996764
v -0.005469 0.000000 -1.989916
v -0.005467 0.000000 -1.000850
v -0.005465 0.000000 0.002732
v -0.005463 0.000000 1.000860
v -0.005461 0.000000 1.998120
v 1.007747 0.000000 -0.999464
v 1.003675 0.000000 -0.002798
v 0.999569 0.000000 1.002234
v 1.011793 0.000000 -1.989916
v 0.995495 0.000000 1.999492
v 3.000616 0.000000 2.007418
v 3.000616 0.000000 -1.983353
v 3.000616 0.000000 -0.991558
v 3.000616 0.000000 -0.001641
v 3.000616 0.000000 1.010152
vt 0.000000 0.000000
vt 0.251953 0.000000
vt 0.251523 0.250148
vt 0.000000 0.250234
vt 0.000000 0.752508
vt 0.250661 0.752250
vt 0.250235 1.000000
vt 0.000000 1.000000
vt 0.000000 0.497253
vt 0.251094 0.498803
vt 0.500341 0.500342
vt 0.500516 0.751992
vt 0.500002 0.000000
vt 0.500173 0.250063
vt 0.500684 1.000000
vt 0.751926 0.249978
vt 0.753038 0.501902
vt 0.754143 0.751731
vt 0.755239 1.000000
vt 0.750820 0.000000
vt 1.000000 0.751478
vt 1.000000 1.000000
vt 1.000000 0.503426
vt 1.000000 0.000000
vt 1.000000 0.249893
vt 1.000000 0.249893
vt 1.000000 0.503426
vt 1.000000 0.751478
vt 1.000000 1.000000
vt 1.000000 0.000000
vn 0.0000 1.0000 0.0000
usemtl None
s off
f 1/1/1 15/2/1 14/3/1 9/4/1
f 5/5/1 12/6/1 11/7/1 3/8/1
f 7/9/1 13/10/1 12/6/1 5/5/1
f 9/4/1 14/3/1 13/10/1 7/9/1
f 12/6/1 13/10/1 18/11/1 17/12/1
f 14/3/1 15/2/1 20/13/1 19/14/1
f 13/10/1 14/3/1 19/14/1 18/11/1
f 11/7/1 12/6/1 17/12/1 16/15/1
f 18/11/1 19/14/1 23/16/1 22/17/1
f 16/15/1 17/12/1 21/18/1 24/19/1
f 17/12/1 18/11/1 22/17/1 21/18/1
f 19/14/1 20/13/1 25/20/1 23/16/1
f 24/19/1 21/18/1 6/21/1 4/22/1
f 21/18/1 22/17/1 8/23/1 6/21/1
f 23/16/1 25/20/1 2/24/1 10/25/1
f 22/17/1 23/16/1 10/25/1 8/23/1
f 8/23/1 10/25/1 30/26/1 29/27/1
f 4/22/1 6/21/1 28/28/1 27/29/1
f 10/25/1 2/24/1 26/30/1 30/26/1
f 6/21/1 8/23/1 29/27/1 28/28/1
