# Blender v3.0.0 OBJ File: ''
# www.blender.org
mtllib texCub.mtl
o Cube
v 1.000000 1.000000 -1.000000
v 1.000000 -1.000000 -1.000000
v 1.000000 1.000000 1.000000
v 1.000000 -1.000000 1.000000
v -1.000000 1.000000 -1.000000
v -1.000000 -1.000000 -1.000000
v -1.000000 1.000000 1.000000
v -1.000000 -1.000000 1.000000
vt 0.995798 0.991468
vt 0.011608 0.988987
vt 0.011608 0.004771
vt 0.995798 0.007252
vt 0.008139 0.007252
vt 0.995798 0.994911
vt 0.008139 0.994911
vt 0.006850 0.990207
vt 0.994509 0.990207
vt 0.995798 0.003809
vt 0.008139 0.003809
vt 0.990717 0.993436
vt 0.008139 0.991468
vt 0.990717 0.009220
vn 0.0000 1.0000 0.0000
vn 0.0000 0.0000 1.0000
vn -1.0000 0.0000 0.0000
vn 0.0000 -1.0000 0.0000
vn 1.0000 0.0000 0.0000
vn 0.0000 0.0000 -1.0000
usemtl Material
s off
f 1/1/1 5/2/1 7/3/1 3/4/1
f 4/5/2 3/4/2 7/6/2 8/7/2
f 8/8/3 7/9/3 5/10/3 6/11/3
f 6/12/4 2/13/4 4/5/4 8/14/4
f 2/13/5 1/1/5 3/4/5 4/5/5
f 6/11/6 5/10/6 1/1/6 2/13/6
